<?xml version="1.0" encoding="utf-8"?>
<!-- Generator: Adobe Illustrator 16.0.0, SVG Export Plug-In . SVG Version: 6.00 Build 0)  -->
<!DOCTYPE svg PUBLIC "-//W3C//DTD SVG 1.1 Tiny//EN" "http://www.w3.org/Graphics/SVG/1.1/DTD/svg11-tiny.dtd">
<svg version="1.1" baseProfile="tiny" id="Layer_1" xmlns="http://www.w3.org/2000/svg" xmlns:xlink="http://www.w3.org/1999/xlink"
	 x="0px" y="0px" width="317.461px" height="282px" viewBox="0 0 317.461 282" xml:space="preserve">
<g>
	<polyline fill="none" stroke="#2D2D2D" stroke-width="0.75" stroke-linejoin="round" points="307.492,241.13 79.271,241.13 
		79.271,12.908 	"/>
	<g>
		<polygon fill="#2D2D2D" points="305.998,239.858 307.271,241.13 305.998,242.401 307.078,242.401 308.35,241.13 307.078,239.858 
					"/>
	</g>
	<g>
		<polygon fill="#2D2D2D" points="80.542,14.401 79.271,13.129 77.999,14.401 77.999,13.322 79.271,12.05 80.542,13.322 		"/>
	</g>
</g>
<g>
	<rect x="79.271" y="255.447" fill="none" width="229.079" height="14.317"/>
	<path d="M194.26,260.563c0.636-0.904,1.495-1.355,2.577-1.355c0.853,0,1.511,0.273,1.976,0.82c0.464,0.548,0.696,1.286,0.696,2.215
		v5.612h-1.451v-5.384c0-0.61-0.134-1.091-0.4-1.44c-0.267-0.351-0.668-0.525-1.202-0.525c-0.434,0-0.821,0.137-1.165,0.41
		c-0.344,0.274-0.579,0.64-0.706,1.098v5.842h-1.432v-5.384c0-0.61-0.134-1.091-0.401-1.44c-0.267-0.351-0.668-0.525-1.202-0.525
		c-0.433,0-0.821,0.137-1.165,0.41c-0.344,0.274-0.579,0.64-0.706,1.098v5.842h-1.432v-8.476h1.432v0.992
		c0.483-0.776,1.247-1.164,2.291-1.164C193.038,259.208,193.801,259.659,194.26,260.563z"/>
</g>
<g>
	<path fill="none" stroke="#42D4E8" stroke-width="0.75" stroke-miterlimit="10" stroke-dasharray="4,4" d="M265.397,12.905
		C265.25,71.009,250.127,241.13,193.81,241.13c-56.315,0-71.437-170.116-71.585-228.222"/>
	<g>
		<polygon fill="#42D4E8" points="264.092,14.382 265.382,13.129 266.634,14.42 266.65,13.341 265.398,12.05 264.107,13.302 		"/>
	</g>
	<g>
		<polygon fill="#42D4E8" points="123.531,14.382 122.24,13.129 120.988,14.42 120.972,13.341 122.224,12.05 123.514,13.302 		"/>
	</g>
</g>
<g>
	<rect x="7.683" y="97.955" fill="none" width="57.271" height="14.317"/>
	<path d="M24.949,107.824h1.355c-0.152,0.828-0.528,1.486-1.126,1.976c-0.599,0.49-1.362,0.735-2.291,0.735
		c-1.158,0-2.097-0.404-2.815-1.212c-0.72-0.808-1.079-1.867-1.079-3.178c0-1.286,0.356-2.345,1.069-3.179
		c0.713-0.833,1.642-1.25,2.787-1.25c1.133,0,2.011,0.379,2.635,1.136c0.623,0.757,0.936,1.766,0.936,3.025v0.516h-5.994
		c0.012,0.891,0.244,1.601,0.696,2.128c0.451,0.528,1.04,0.792,1.766,0.792c0.535,0,0.983-0.13,1.346-0.392
		C24.597,108.661,24.835,108.295,24.949,107.824z M22.869,102.938c-0.637,0-1.171,0.21-1.604,0.63
		c-0.434,0.42-0.7,0.999-0.802,1.737h4.505c-0.013-0.675-0.197-1.238-0.554-1.69C24.059,103.164,23.543,102.938,22.869,102.938z"/>
	<path d="M32.681,101.849v1.47c-0.229-0.153-0.548-0.229-0.954-0.229c-0.459,0-0.866,0.14-1.223,0.42
		c-0.356,0.28-0.604,0.668-0.744,1.165v5.689h-1.432v-8.476h1.432v1.107c0.191-0.369,0.474-0.674,0.85-0.917
		c0.375-0.242,0.792-0.363,1.25-0.363C32.229,101.715,32.502,101.76,32.681,101.849z"/>
	<path d="M38.809,101.849v1.47c-0.229-0.153-0.548-0.229-0.954-0.229c-0.459,0-0.866,0.14-1.223,0.42
		c-0.356,0.28-0.604,0.668-0.744,1.165v5.689h-1.432v-8.476h1.432v1.107c0.191-0.369,0.474-0.674,0.85-0.917
		c0.375-0.242,0.792-0.363,1.25-0.363C38.356,101.715,38.63,101.76,38.809,101.849z"/>
	<path d="M46.436,102.947c0.719,0.821,1.078,1.88,1.078,3.179c0,1.298-0.359,2.357-1.078,3.178c-0.72,0.821-1.658,1.231-2.816,1.231
		s-2.097-0.411-2.815-1.231c-0.72-0.821-1.079-1.88-1.079-3.178c0-1.298,0.359-2.358,1.079-3.179
		c0.719-0.821,1.657-1.231,2.815-1.231S45.716,102.126,46.436,102.947z M45.404,108.407c0.439-0.579,0.658-1.339,0.658-2.281
		s-0.219-1.702-0.658-2.281s-1.034-0.869-1.785-0.869s-1.346,0.29-1.785,0.869c-0.438,0.579-0.658,1.339-0.658,2.281
		s0.22,1.702,0.658,2.281c0.439,0.579,1.034,0.869,1.785,0.869S44.965,108.986,45.404,108.407z"/>
	<path d="M53.813,101.849v1.47c-0.229-0.153-0.548-0.229-0.954-0.229c-0.459,0-0.866,0.14-1.223,0.42
		c-0.356,0.28-0.604,0.668-0.744,1.165v5.689h-1.432v-8.476h1.432v1.107c0.191-0.369,0.474-0.674,0.85-0.917
		c0.375-0.242,0.792-0.363,1.25-0.363C53.361,101.715,53.635,101.76,53.813,101.849z"/>
</g>
<circle fill="none" stroke="#E54281" stroke-width="0.75" stroke-miterlimit="10" cx="122.223" cy="40.686" r="4.243"/>
<g>
	
		<line fill="none" stroke="#FF8FBD" stroke-width="0.75" stroke-miterlimit="10" stroke-dasharray="4,4" x1="126.466" y1="48.641" x2="133.28" y2="122.556"/>
	<g>
		<polygon fill="#FF8FBD" points="131.876,121.185 133.259,122.335 134.409,120.951 134.508,122.026 133.358,123.409 
			131.976,122.26 		"/>
	</g>
</g>
<circle fill="none" stroke="#E54281" stroke-width="0.75" stroke-miterlimit="10" cx="133.359" cy="134.12" r="4.243"/>
<path fill="none" stroke="#E54281" stroke-width="0.75" stroke-miterlimit="10" d="M151.917,187.039c0,2.345-1.9,4.246-4.243,4.246
	c-2.342,0-4.243-1.901-4.243-4.246c0-2.342,1.9-4.239,4.243-4.239C150.018,182.8,151.917,184.697,151.917,187.039z"/>
<g>
	
		<line fill="none" stroke="#FF8FBD" stroke-width="0.75" stroke-miterlimit="10" stroke-dasharray="4,4" x1="137.602" y1="141.969" x2="147.441" y2="176.672"/>
	<g>
		<polygon fill="#FF8FBD" points="145.81,175.582 147.38,176.459 148.257,174.888 148.551,175.927 147.675,177.497 146.104,176.621 
					"/>
	</g>
</g>
<circle fill="none" stroke="#E54281" stroke-width="0.75" stroke-miterlimit="10" cx="170.583" cy="229.375" r="4.243"/>
<g>
	
		<line fill="none" stroke="#FF8FBD" stroke-width="0.75" stroke-miterlimit="10" stroke-dasharray="4,4" x1="155.101" y1="191.285" x2="166.022" y2="218.594"/>
	<g>
		<polygon fill="#FF8FBD" points="164.287,217.679 165.94,218.388 166.648,216.734 167.049,217.737 166.34,219.39 164.688,218.682 
					"/>
	</g>
</g>
<circle fill="none" stroke="#E54281" stroke-width="0.75" stroke-miterlimit="10" cx="213.193" cy="233.619" r="4.243"/>
<g>
	
		<line fill="none" stroke="#FF8FBD" stroke-width="0.75" stroke-miterlimit="10" stroke-dasharray="4,4" x1="177.372" y1="229.375" x2="206.185" y2="233.499"/>
	<g>
		<polygon fill="#FF8FBD" points="204.525,234.546 205.965,233.467 204.886,232.028 205.955,232.182 207.033,233.62 
			205.595,234.698 		"/>
	</g>
</g>
<circle fill="none" stroke="#E54281" stroke-width="0.75" stroke-miterlimit="10" cx="193.81" cy="241.128" r="4.243"/>
<g>
	
		<line fill="none" stroke="#FF8FBD" stroke-width="0.75" stroke-miterlimit="10" stroke-dasharray="4,4" x1="207.631" y1="237.863" x2="200.514" y2="239.451"/>
	<g>
		<polygon fill="#FF8FBD" points="201.694,237.885 200.729,239.402 202.248,240.367 201.194,240.602 199.677,239.638 
			200.641,238.12 		"/>
	</g>
</g>
<g>
</g>
<g>
</g>
<g>
</g>
<g>
</g>
<g>
</g>
<g>
</g>
<g>
</g>
</svg>
